<?xml version="1.0" standalone="no"?>
<!DOCTYPE svg PUBLIC "-//W3C//DTD SVG 20010904//EN"
 "http://www.w3.org/TR/2001/REC-SVG-20010904/DTD/svg10.dtd">
<svg version="1.0" xmlns="http://www.w3.org/2000/svg"
 width="128.000000pt" height="128.000000pt" viewBox="0 0 128.000000 128.000000"
 preserveAspectRatio="xMidYMid meet">
<metadata>
Created by potrace 1.14, written by Peter Selinger 2001-2017
</metadata>
<g transform="translate(0.000000,128.000000) scale(0.100000,-0.100000)"
fill="#000000" stroke="none">
<path d="M657 1259 c7 -9 9 -20 5 -24 -4 -5 -1 -5 6 -1 7 4 29 -2 49 -14 19
-11 38 -19 40 -16 3 2 -10 12 -29 22 -18 9 -44 24 -58 33 -23 14 -24 14 -13 0z"/>
<path d="M659 1188 c-3 -56 -1 -160 4 -165 4 -3 7 35 7 85 0 51 -2 92 -5 92
-3 0 -5 -6 -6 -12z"/>
<path d="M770 1196 c0 -3 14 -12 30 -21 17 -9 30 -13 30 -11 0 3 -13 12 -30
21 -16 9 -30 13 -30 11z"/>
<path d="M314 1074 c-18 -14 -18 -14 6 -3 31 14 36 19 24 19 -6 0 -19 -7 -30
-16z"/>
<path d="M826 1078 c3 -5 10 -6 15 -3 13 9 11 12 -6 12 -8 0 -12 -4 -9 -9z"/>
<path d="M455 1060 c3 -5 8 -10 11 -10 2 0 4 5 4 10 0 6 -5 10 -11 10 -5 0 -7
-4 -4 -10z"/>
<path d="M895 1060 c3 -5 8 -10 11 -10 2 0 4 5 4 10 0 6 -5 10 -11 10 -5 0 -7
-4 -4 -10z"/>
<path d="M225 1025 c-33 -19 -55 -35 -48 -35 11 0 113 60 113 66 0 6 -2 5 -65
-31z"/>
<path d="M835 1040 c-3 -5 -1 -10 4 -10 6 0 11 5 11 10 0 6 -2 10 -4 10 -3 0
-8 -4 -11 -10z"/>
<path d="M370 1019 c0 -5 5 -7 10 -4 6 3 10 8 10 11 0 2 -4 4 -10 4 -5 0 -10
-5 -10 -11z"/>
<path d="M661 983 c-1 -25 3 -33 17 -33 11 0 13 3 6 8 -7 4 -14 18 -17 32 -4
21 -4 20 -6 -7z"/>
<path d="M830 999 c0 -5 5 -7 10 -4 6 3 10 8 10 11 0 2 -4 4 -10 4 -5 0 -10
-5 -10 -11z"/>
<path d="M910 999 c0 -5 5 -7 10 -4 6 3 10 8 10 11 0 2 -4 4 -10 4 -5 0 -10
-5 -10 -11z"/>
<path d="M460 966 c0 -2 8 -10 18 -17 15 -13 16 -12 3 4 -13 16 -21 21 -21 13z"/>
<path d="M830 966 c0 -2 7 -7 16 -10 8 -3 12 -2 9 4 -6 10 -25 14 -25 6z"/>
<path d="M870 966 c0 -2 7 -7 16 -10 8 -3 12 -2 9 4 -6 10 -25 14 -25 6z"/>
<path d="M910 966 c0 -2 7 -7 16 -10 8 -3 12 -2 9 4 -6 10 -25 14 -25 6z"/>
<path d="M616 938 c6 -10 -52 -39 -61 -30 -5 4 -5 1 -1 -5 6 -12 0 -15 -20
-12 -4 0 -10 -4 -13 -9 -3 -5 -30 -24 -59 -42 -29 -18 -51 -34 -48 -37 2 -3
13 0 24 6 12 6 23 11 25 11 10 0 46 -38 42 -44 -3 -3 0 -2 7 4 8 6 17 3 30
-12 10 -12 18 -18 18 -14 0 4 7 0 16 -8 16 -17 39 -12 28 5 -3 5 -11 6 -17 2
-9 -5 -9 -3 0 8 9 11 9 19 2 26 -15 15 -1 36 19 28 9 -3 13 -3 9 1 -4 4 -1 14
6 22 8 11 9 14 0 9 -8 -5 -10 1 -7 20 3 19 1 24 -5 14 -7 -11 -9 -11 -14 0 -4
11 -6 11 -6 1 -1 -8 -6 -10 -13 -6 -9 5 -8 2 1 -9 12 -16 11 -17 -10 -13 -34
5 -53 -12 -37 -33 7 -9 8 -13 4 -9 -5 4 -16 2 -25 -5 -14 -10 -14 -10 -3 5 12
15 11 16 -13 12 -18 -3 -24 -1 -20 6 4 6 13 9 20 6 7 -2 15 1 18 7 3 7 27 23
53 37 27 14 51 28 52 33 2 4 11 7 20 7 10 0 13 -3 7 -8 -16 -11 -19 -46 -3
-36 10 6 10 4 -1 -9 -9 -11 -9 -17 -2 -17 11 0 11 -27 -2 -47 -4 -6 -1 -14 5
-16 10 -4 10 -6 0 -6 -7 -1 -11 -5 -8 -10 3 -5 -1 -14 -9 -21 -11 -9 -12 -17
-4 -32 9 -16 8 -19 -3 -12 -10 6 -10 4 1 -9 8 -11 21 -15 32 -12 12 4 19 1 19
-6 0 -24 19 5 24 38 5 24 2 35 -11 42 -14 8 -15 10 -3 11 13 0 13 1 0 10 -10
6 -11 10 -2 10 6 0 12 5 12 11 0 5 -4 8 -9 5 -11 -7 -9 13 2 32 5 7 3 12 -5
12 -10 0 -10 2 1 9 8 5 16 17 17 25 1 9 -2 14 -7 10 -5 -3 -7 -10 -4 -15 4 -5
1 -9 -4 -9 -6 0 -10 11 -9 25 2 23 4 24 23 10 11 -8 42 -27 69 -42 83 -47 86
-50 78 -58 -4 -5 -1 -5 6 -1 7 4 19 2 27 -4 10 -8 15 -9 15 -2 0 6 -9 16 -20
22 -11 6 -18 15 -15 20 3 6 0 7 -8 4 -8 -3 -21 1 -28 8 -8 7 -30 21 -49 31
-19 10 -54 29 -77 42 -39 22 -88 31 -77 13z m-11 -91 c0 -7 -9 -19 -20 -28
-16 -14 -17 -19 -7 -32 20 -24 -3 -29 -30 -7 -14 11 -28 17 -32 15 -3 -3 -3
-2 0 3 3 4 10 8 15 8 5 1 12 2 15 3 4 0 1 8 -6 16 -7 8 -10 16 -6 16 23 5 32
4 44 -4 12 -9 17 3 12 28 -1 6 2 6 7 2 4 -5 8 -14 8 -20z"/>
<path d="M548 828 c8 -8 8 -15 1 -24 -8 -9 -4 -16 13 -24 21 -10 21 -10 5 3
-15 13 -16 16 -2 27 17 14 13 23 -12 26 -11 2 -13 0 -5 -8z"/>
<path d="M460 926 c0 -2 8 -10 18 -17 15 -13 16 -12 3 4 -13 16 -21 21 -21 13z"/>
<path d="M350 896 c0 -2 8 -10 18 -17 15 -13 16 -12 3 4 -13 16 -21 21 -21 13z"/>
<path d="M703 883 c4 -6 3 -14 -3 -18 -6 -4 -8 -10 -5 -15 3 -5 1 -12 -5 -15
-8 -5 -8 -11 -1 -19 6 -7 9 -22 6 -34 -2 -11 3 -26 10 -32 8 -6 11 -19 8 -28
-3 -10 1 -8 11 6 10 12 22 19 28 16 7 -4 8 -2 4 4 -4 7 -1 12 7 12 8 0 20 7
27 15 7 8 16 13 20 10 15 -9 22 15 9 31 -6 8 -14 12 -17 9 -3 -2 -10 2 -16 11
-6 8 -19 16 -28 18 -10 1 -27 11 -39 22 -12 10 -19 14 -16 7z m47 -38 c0 5 12
-2 26 -16 14 -13 29 -23 32 -21 4 2 8 -2 10 -10 3 -11 2 -11 -6 0 -7 11 -11
10 -16 -4 -3 -9 -9 -14 -12 -11 -4 3 -18 -5 -32 -18 -30 -28 -53 -18 -46 20 2
13 0 27 -6 30 -6 4 -7 12 -3 18 4 7 8 15 9 20 1 4 2 10 3 14 0 3 10 -2 21 -12
11 -10 20 -14 20 -10z"/>
<path d="M713 853 c4 -6 3 -15 -3 -18 -8 -5 -8 -11 -1 -19 6 -7 9 -22 6 -34
-6 -34 11 -35 38 -2 16 19 27 25 30 17 3 -7 6 -8 6 -1 1 6 -8 19 -19 29 -11
10 -20 14 -20 10 0 -4 -10 0 -22 11 -12 10 -18 14 -15 7z m42 -28 c15 -1 7
-27 -15 -49 -19 -20 -19 -19 -15 6 3 15 1 30 -5 33 -6 4 -8 11 -4 16 3 5 11 6
17 2 7 -4 17 -8 22 -8z"/>
<path d="M728 818 c8 -9 11 -22 7 -28 -3 -5 -4 -10 -1 -10 3 0 11 10 17 23 6
12 8 19 4 15 -5 -4 -15 -2 -24 5 -14 10 -14 10 -3 -5z"/>
<path d="M629 835 c-1 -3 -2 -11 -3 -17 -1 -7 -9 -12 -19 -10 -18 3 -23 -9 -9
-22 4 -4 7 -12 7 -17 0 -18 20 -8 21 11 1 11 2 21 4 23 4 5 8 37 4 37 -2 0 -5
-2 -5 -5z"/>
<path d="M370 722 c0 -12 -6 -22 -12 -22 -9 0 -10 -3 -2 -8 14 -9 14 -43 0
-61 -8 -11 -8 -13 0 -8 8 4 11 -3 10 -23 0 -17 -4 -30 -8 -30 -5 0 -8 -5 -8
-11 0 -5 5 -7 10 -4 14 9 12 -8 -2 -24 -10 -11 -10 -13 0 -7 7 4 12 1 12 -8 0
-9 -6 -16 -12 -16 -10 0 -9 -3 1 -9 11 -7 10 -13 -4 -35 -14 -21 -20 -24 -31
-15 -12 10 -13 9 -8 -5 3 -9 1 -17 -5 -17 -6 -1 -16 -2 -21 -3 -6 0 -15 -7
-19 -15 -6 -9 -16 -11 -27 -7 -10 4 -15 4 -11 0 9 -10 -44 -45 -56 -37 -6 3
-7 1 -3 -5 4 -7 2 -12 -4 -12 -7 0 -24 -9 -40 -20 -15 -11 -30 -16 -34 -13 -4
4 -4 1 -1 -7 3 -8 34 -30 68 -48 64 -33 52 -18 -18 23 l-40 24 40 17 c22 9 47
18 55 19 8 1 14 7 13 13 -1 5 12 16 30 23 18 7 50 26 73 41 39 26 79 32 79 10
0 -6 4 -14 9 -19 6 -5 6 -2 1 6 -6 11 -4 13 9 8 10 -4 20 -7 22 -7 3 0 2 -5
-2 -12 -4 -6 -3 -8 4 -4 17 10 97 -40 95 -59 -1 -12 2 -14 9 -7 8 8 20 6 40
-4 17 -9 32 -13 35 -10 3 3 -2 8 -11 12 -9 3 -16 15 -16 25 0 10 -5 19 -11 19
-5 0 -7 5 -4 10 4 6 12 7 18 3 7 -4 6 0 -2 10 -11 14 -11 17 0 17 10 0 10 3 1
12 -9 9 -16 8 -30 -3 -10 -8 -8 -5 4 7 l21 21 -21 13 c-18 12 -19 11 -9 -2 11
-12 9 -18 -7 -33 -23 -21 -27 -40 -6 -32 8 3 13 0 12 -8 -3 -18 -16 -32 -16
-17 0 7 -7 12 -15 12 -9 0 -18 6 -21 14 -3 8 -12 12 -20 9 -7 -3 -17 2 -20 11
-3 9 -9 14 -13 12 -4 -3 -20 4 -37 16 -16 11 -21 18 -11 14 9 -3 17 -1 17 4 0
5 7 7 15 4 11 -5 14 -1 9 12 -5 16 -4 16 5 4 10 -14 16 -7 12 13 -1 5 3 6 8 3
5 -3 14 1 21 8 6 8 20 13 32 11 13 -3 18 0 15 9 -3 8 2 13 16 12 16 -1 21 -8
23 -36 2 -25 0 -30 -7 -20 -9 13 -10 13 -7 1 9 -32 29 -23 26 11 -1 24 5 42
20 58 20 21 21 47 2 35 -4 -3 -6 5 -3 16 6 21 4 21 -45 -6 -29 -16 -52 -32
-52 -37 0 -5 5 -6 12 -2 7 4 8 3 4 -4 -4 -6 -14 -8 -23 -5 -12 5 -14 3 -8 -7
5 -8 4 -11 -3 -6 -6 3 -15 -2 -21 -11 -6 -11 -11 -13 -11 -5 0 7 -5 10 -10 7
-6 -4 -7 -11 -4 -17 4 -6 2 -8 -4 -4 -6 3 -13 2 -17 -4 -3 -5 -14 -14 -24 -20
-17 -9 -18 -2 -19 122 -1 72 -4 133 -7 136 -3 3 -5 -4 -5 -16z m206 -317 c-1
-8 -5 -17 -8 -21 -5 -4 -4 16 1 34 3 9 9 -1 7 -13z m-1 -45 c3 -5 1 -10 -4
-10 -6 0 -11 5 -11 10 0 6 2 10 4 10 3 0 8 -4 11 -10z"/>
<path d="M917 713 c-4 -3 -7 -17 -7 -30 0 -14 -4 -21 -10 -18 -6 4 -7 11 -4
17 4 6 -7 3 -25 -8 -17 -10 -31 -22 -31 -27 0 -5 -8 -3 -17 4 -10 9 -14 9 -10
2 9 -14 -26 -36 -38 -25 -5 4 -5 1 -1 -5 4 -7 4 -13 -1 -14 -4 0 -17 -2 -27
-4 -11 -2 -28 1 -38 6 -15 8 -18 6 -18 -10 0 -11 -5 -21 -12 -23 -7 -3 -5 -13
7 -31 9 -15 14 -27 9 -27 -4 0 3 -12 17 -27 15 -16 18 -24 9 -21 -13 5 -16 -1
-14 -25 1 -17 -2 -39 -7 -49 -7 -14 -5 -16 11 -13 11 2 20 0 20 -6 0 -5 -7 -9
-15 -9 -8 0 -15 -4 -15 -10 0 -6 9 -5 24 2 24 10 24 12 9 37 -10 18 -11 21 -1
9 13 -15 15 -15 26 0 7 9 10 12 7 5 -4 -9 13 -11 35 -3 3 1 9 2 14 1 5 -1 3 6
-5 15 -8 9 -14 20 -14 23 0 3 -4 5 -8 3 -5 -1 -5 3 -1 9 5 8 3 9 -6 4 -8 -5
-11 -4 -6 3 9 15 -22 8 -37 -8 -10 -12 -9 -12 4 -2 14 10 16 8 15 -13 -1 -13
-6 -28 -10 -32 -5 -4 -6 -2 -2 5 4 7 4 12 -1 11 -4 -1 -15 -1 -23 0 -13 1 -13
2 0 11 8 5 11 10 6 10 -5 0 1 12 15 27 13 15 16 21 6 14 -16 -12 -18 -12 -15
0 2 8 -3 13 -10 11 -8 -1 -11 2 -6 9 4 7 3 9 -3 6 -5 -3 -10 0 -10 8 0 12 4
12 20 -2 17 -15 19 -15 15 -2 -4 9 -1 16 7 16 8 0 11 -7 7 -15 -4 -11 -1 -14
11 -9 12 4 14 2 10 -11 -6 -14 -4 -15 9 -4 12 10 18 9 28 -3 7 -8 15 -13 19
-10 4 2 20 -7 37 -21 16 -14 23 -23 17 -19 -7 3 -13 2 -13 -3 0 -6 -17 -19
-37 -30 -69 -36 -168 -102 -153 -102 8 0 22 4 30 10 8 5 19 5 25 0 6 -5 17 -5
25 2 12 8 12 9 -2 4 -10 -3 -20 -1 -22 3 -7 10 42 33 54 26 5 -3 12 0 16 6 5
8 2 10 -7 5 -8 -4 -5 0 5 8 11 9 25 16 32 16 6 0 17 7 24 15 7 9 15 13 18 11
2 -3 11 1 19 9 21 21 38 19 22 -2 -13 -16 -12 -17 3 -5 14 11 22 11 48 -3 17
-9 28 -20 25 -25 -3 -5 0 -12 6 -16 7 -4 9 -3 5 4 -3 5 -1 12 5 14 6 2 -9 15
-34 28 l-46 24 0 135 c-1 74 -2 136 -4 138 -2 1 -7 0 -10 -4z m-21 -57 c17
-17 18 -36 3 -36 -5 0 -8 4 -4 9 3 5 0 13 -6 17 -8 5 -9 3 -4 -6 6 -9 4 -11
-5 -5 -8 5 -11 4 -6 -3 3 -6 3 -13 -2 -16 -7 -4 -9 -71 -2 -86 1 -3 2 -9 1
-13 -1 -5 3 -6 8 -3 11 7 9 -20 -3 -31 -4 -4 -6 -3 -4 2 2 6 0 10 -3 10 -4 0
-17 9 -29 20 -12 11 -25 20 -29 20 -3 0 -5 4 -3 9 2 5 -4 6 -11 3 -9 -3 -23 6
-35 23 -17 23 -18 28 -5 26 9 -2 27 8 41 21 13 12 28 21 32 18 4 -2 15 4 25
15 22 24 22 24 41 6z m3 -57 c-7 -4 -14 -19 -15 -33 0 -14 3 -23 7 -20 4 2 6
13 4 24 -2 11 0 20 4 20 5 0 9 -28 10 -61 1 -60 -5 -75 -12 -32 -1 12 -7 27
-13 35 -6 7 -9 28 -8 46 2 43 2 42 20 35 12 -4 13 -8 3 -14z m-106 -153 c3 3
4 -2 2 -13 -2 -10 -4 -20 -4 -22 -2 -10 -25 20 -27 34 -2 12 1 13 10 6 7 -6
15 -8 19 -5z"/>
<path d="M855 640 c-10 -11 -21 -18 -25 -15 -4 2 -18 -6 -31 -18 -13 -12 -27
-21 -31 -19 -5 1 -3 -7 4 -18 7 -11 15 -15 16 -10 3 7 8 7 18 -1 8 -6 11 -16
7 -22 -3 -5 -1 -7 4 -4 6 4 16 0 23 -8 14 -17 35 -9 22 8 -7 11 -9 68 -2 82 1
3 3 8 4 13 1 4 5 13 9 20 12 18 2 14 -18 -8z m-2 -22 c-11 -16 -11 -68 1 -88
5 -8 -7 0 -26 18 -19 18 -39 29 -44 25 -5 -5 2 4 15 19 13 15 27 25 32 23 4
-3 10 -1 14 5 3 5 9 10 12 10 3 0 1 -6 -4 -12z"/>
<path d="M811 597 c-8 -11 -7 -18 7 -31 18 -15 19 -15 18 8 -2 32 -10 40 -25
23z m16 -12 c0 -8 -4 -12 -9 -9 -5 3 -6 10 -3 15 9 13 12 11 12 -6z"/>
<path d="M970 699 c0 -5 5 -7 10 -4 6 3 10 8 10 11 0 2 -4 4 -10 4 -5 0 -10
-5 -10 -11z"/>
<path d="M1010 699 c0 -5 5 -7 10 -4 6 3 10 8 10 11 0 2 -4 4 -10 4 -5 0 -10
-5 -10 -11z"/>
<path d="M394 649 c-1 -41 4 -47 24 -27 6 6 19 13 28 14 14 2 14 1 1 -14 -8
-9 -13 -25 -12 -34 2 -9 -7 -25 -18 -35 -14 -12 -18 -13 -10 -2 10 12 10 18 0
29 -9 11 -7 10 8 0 18 -14 19 -14 6 3 -20 26 -28 21 -28 -18 0 -19 5 -35 10
-35 5 0 4 -7 -3 -15 -24 -28 0 -29 29 -1 16 15 31 26 33 24 2 -1 24 14 48 35
25 22 39 35 31 31 -11 -5 -13 -3 -8 10 5 14 3 15 -13 6 -24 -13 -31 -13 -28 2
2 7 -1 13 -7 14 -25 4 -55 17 -55 23 0 3 -8 11 -18 17 -15 10 -17 7 -18 -27z
m25 7 c8 -10 8 -16 -2 -24 -10 -9 -13 -6 -13 13 0 29 0 29 15 11z m66 -37 c-3
-3 2 -12 10 -19 11 -9 15 -9 15 -1 0 7 5 9 10 6 10 -6 -43 -58 -55 -55 -4 1
-21 -11 -38 -27 -17 -15 -25 -20 -18 -10 7 9 10 17 6 17 -5 0 0 9 11 21 10 12
19 29 19 38 0 23 12 38 29 38 8 0 13 -4 11 -8z"/>
<path d="M459 617 c-1 -4 -2 -16 -3 -26 0 -10 -10 -29 -21 -42 l-20 -24 21 18
c11 9 23 15 26 12 3 -3 12 3 21 13 16 18 16 20 -3 37 -11 10 -21 15 -21 12z
m20 -21 c8 -10 8 -16 -2 -24 -10 -9 -13 -6 -13 13 0 29 0 29 15 11z"/>
<path d="M975 660 c-3 -5 -1 -10 4 -10 6 0 11 5 11 10 0 6 -2 10 -4 10 -3 0
-8 -4 -11 -10z"/>
<path d="M1010 659 c0 -5 5 -7 10 -4 6 3 10 8 10 11 0 2 -4 4 -10 4 -5 0 -10
-5 -10 -11z"/>
<path d="M421 616 c-9 -11 -9 -16 1 -22 7 -4 10 -4 6 1 -4 4 -3 14 3 22 6 7 9
13 6 13 -2 0 -10 -6 -16 -14z"/>
<path d="M548 518 c-3 -7 -14 -13 -25 -13 -11 0 -37 -16 -59 -34 -21 -19 -31
-32 -22 -28 12 4 19 0 23 -14 4 -13 12 -18 21 -15 8 3 17 -1 20 -9 4 -11 11
-8 29 13 14 16 20 31 15 36 -5 5 -4 18 2 30 15 27 18 46 8 46 -5 0 -10 -6 -12
-12z m-3 -32 c-11 -17 -13 -26 -5 -31 8 -5 6 -13 -6 -26 -12 -13 -21 -16 -29
-9 -6 5 -14 7 -18 4 -3 -3 -10 3 -16 13 -8 16 -5 24 12 39 12 10 30 19 39 19
9 0 20 3 24 8 15 14 14 7 -1 -17z"/>
<path d="M488 468 c-10 -10 -13 -18 -7 -18 5 0 7 -6 3 -12 -4 -7 -4 -10 1 -6
4 4 14 3 20 -2 9 -7 16 -6 24 4 8 9 8 16 2 20 -6 4 -8 14 -5 24 5 13 4 14 -4
3 -5 -7 -11 -9 -13 -4 -2 5 -12 1 -21 -9z m36 -30 c-3 -5 -12 -4 -20 3 -7 6
-11 15 -8 21 3 5 12 4 20 -3 7 -6 11 -15 8 -21z"/>
<path d="M787 493 c-4 -3 2 -16 12 -27 11 -12 20 -24 20 -28 1 -5 3 -8 6 -8 3
0 11 0 19 0 8 0 17 7 20 16 3 8 2 13 -3 10 -5 -3 -12 1 -15 10 -4 9 -9 14 -13
10 -3 -3 -14 1 -23 9 -9 8 -20 12 -23 8z m48 -26 c4 5 5 3 2 -4 -4 -6 -2 -13
5 -15 7 -3 4 -7 -7 -12 -11 -4 -16 -4 -12 0 4 4 -3 19 -15 33 -20 22 -20 23
-2 8 11 -9 24 -14 29 -10z"/>
<path d="M1050 460 c0 -5 5 -10 11 -10 5 0 7 5 4 10 -3 6 -8 10 -11 10 -2 0
-4 -4 -4 -10z"/>
<path d="M1090 460 c0 -5 5 -10 11 -10 5 0 7 5 4 10 -3 6 -8 10 -11 10 -2 0
-4 -4 -4 -10z"/>
<path d="M269 443 c-13 -16 -12 -17 4 -4 16 13 21 21 13 21 -2 0 -10 -8 -17
-17z"/>
<path d="M156 438 c3 -5 10 -6 15 -3 13 9 11 12 -6 12 -8 0 -12 -4 -9 -9z"/>
<path d="M1050 420 c0 -5 5 -10 11 -10 5 0 7 5 4 10 -3 6 -8 10 -11 10 -2 0
-4 -4 -4 -10z"/>
<path d="M1095 420 c3 -5 8 -10 11 -10 2 0 4 5 4 10 0 6 -5 10 -11 10 -5 0 -7
-4 -4 -10z"/>
<path d="M350 401 c0 -6 4 -13 10 -16 6 -3 7 1 4 9 -7 18 -14 21 -14 7z"/>
<path d="M760 390 c-9 -6 -10 -10 -3 -10 6 0 15 5 18 10 8 12 4 12 -15 0z"/>
<path d="M1057 383 c-4 -3 -7 -11 -7 -17 0 -6 5 -5 12 2 6 6 9 14 7 17 -3 3
-9 2 -12 -2z"/>
<path d="M1095 380 c3 -5 8 -10 11 -10 2 0 4 5 4 10 0 6 -5 10 -11 10 -5 0 -7
-4 -4 -10z"/>
<path d="M426 362 c-3 -5 1 -9 9 -9 8 0 12 4 9 9 -3 4 -7 8 -9 8 -2 0 -6 -4
-9 -8z"/>
<path d="M270 336 c0 -2 8 -10 18 -17 15 -13 16 -12 3 4 -13 16 -21 21 -21 13z"/>
<path d="M789 323 c-13 -16 -12 -17 4 -4 9 7 17 15 17 17 0 8 -8 3 -21 -13z"/>
<path d="M829 323 c-13 -16 -12 -17 4 -4 9 7 17 15 17 17 0 8 -8 3 -21 -13z"/>
<path d="M869 323 c-13 -16 -12 -17 4 -4 9 7 17 15 17 17 0 8 -8 3 -21 -13z"/>
<path d="M909 323 c-13 -16 -12 -17 4 -4 9 7 17 15 17 17 0 8 -8 3 -21 -13z"/>
<path d="M555 221 c-3 -5 -2 -12 3 -15 5 -3 9 1 9 9 0 17 -3 19 -12 6z"/>
<path d="M237 209 c7 -7 15 -10 18 -7 3 3 -2 9 -12 12 -14 6 -15 5 -6 -5z"/>
<path d="M495 140 c-3 -5 -1 -10 4 -10 6 0 11 5 11 10 0 6 -2 10 -4 10 -3 0
-8 -4 -11 -10z"/>
<path d="M535 140 c-3 -5 -1 -10 4 -10 6 0 11 5 11 10 0 6 -2 10 -4 10 -3 0
-8 -4 -11 -10z"/>
<path d="M885 120 c-3 -6 1 -7 9 -4 18 7 21 14 7 14 -6 0 -13 -4 -16 -10z"/>
<path d="M773 58 c-40 -23 -71 -44 -69 -46 5 -4 146 78 146 84 0 6 -1 6 -77
-38z"/>
</g>
</svg>
